# xmcd
#
# Track frame offsets:
# 183
# 19853
# 39443
# 57813
# 74345
# 98055
# 130040
# 136423
# 153508
# 175038
# 201010
# 215173
# 230828
# 240695
#
# Disc length: 3455 seconds
#
#
# Revision: 5
# Processed by: cddbd v1.5.2PL0 Copyright (c) Steve Scherf et al.
# Submitted via: FreeRIP 2.52 
#
DISCID=c40d7d0e
DTITLE=Mirek Cerny - Balicek Karet
DYEAR=1992
DGENRE=Folk
TTITLE0=Balicek karet (Texas Rangers)
TTITLE1=Dik za vas usmev
TTITLE2=Sto let
TTITLE3=Posledni vecere
TTITLE4=Zatim co ty spis
TTITLE5=Kluk a strom
TTITLE6=Tak vas tu vitam
TTITLE7=Carodejka Chvejka
TTITLE8=Carodej Kolodej
TTITLE9=Vitez
TTITLE10=Pterodaktylus
TTITLE11=Dukaz
TTITLE12=Jenik s Marenkou
TTITLE13=Nula
EXTD=YEAR: 1992
EXTT0=
EXTT1=
EXTT2=
EXTT3=
EXTT4=
EXTT5=
EXTT6=
EXTT7=
EXTT8=
EXTT9=
EXTT10=
EXTT11=
EXTT12=
EXTT13=
PLAYORDER=
